<?xml version="1.0" encoding="utf-8"?>
<!-- Generator: Adobe Illustrator 24.0.1, SVG Export Plug-In . SVG Version: 6.00 Build 0)  -->
<svg version="1.1" id="Outline" xmlns="http://www.w3.org/2000/svg" xmlns:xlink="http://www.w3.org/1999/xlink" x="0px" y="0px"
	 viewBox="0 0 512 512" style="enable-background:new 0 0 512 512;" xml:space="preserve">
<style type="text/css">
	.st0{fill:#FFFFFF;}
</style>
<path class="st0" d="M210.7,386.6c25,25,65.5,25,90.5,0c0,0,0,0,0,0l68.5-68.5c7.9-8.7,7.2-22.2-1.5-30.1c-8.1-7.4-20.5-7.3-28.6,0
	l-62.4,62.4l0.1-329.1C277.3,9.6,267.8,0,256,0l0,0c-11.8,0-21.3,9.6-21.3,21.3L234.5,350l-62.1-62c-8.3-8.3-21.8-8.3-30.2,0
	c-8.3,8.3-8.3,21.8,0,30.2L210.7,386.6z"/>
<path class="st0" d="M490.7,341.3L490.7,341.3c-11.8,0-21.3,9.6-21.3,21.3V448c0,11.8-9.6,21.3-21.3,21.3H64
	c-11.8,0-21.3-9.6-21.3-21.3v-85.3c0-11.8-9.6-21.3-21.3-21.3l0,0C9.6,341.3,0,350.9,0,362.7V448c0,35.3,28.7,64,64,64h384
	c35.3,0,64-28.7,64-64v-85.3C512,350.9,502.4,341.3,490.7,341.3z"/>
</svg>
