<?xml version="1.0" encoding="utf-8"?>
<!-- Generator: Adobe Illustrator 24.0.1, SVG Export Plug-In . SVG Version: 6.00 Build 0)  -->
<svg version="1.1" id="Outline" xmlns="http://www.w3.org/2000/svg" xmlns:xlink="http://www.w3.org/1999/xlink" x="0px" y="0px"
	 viewBox="0 0 512 456" style="enable-background:new 0 0 512 456;" xml:space="preserve">
<style type="text/css">
	.st0{fill:#FFFFFF;}
</style>
<path class="st0" d="M373.3,4C324.4,4.8,279.7,31.6,256,74.4C232.3,31.6,187.6,4.8,138.7,4C58.9,7.5-3,74.7,0,154.4
	c0,97,102.1,202.9,187.7,274.8c39.5,33.2,97.1,33.2,136.5,0C409.9,357.3,512,251.4,512,154.4C515,74.7,453.1,7.5,373.3,4z
	 M296.9,396.5c-23.6,19.9-58.1,19.9-81.7,0c-109.6-92-172.5-180.2-172.5-242.1c-3-56.2,39.8-104.3,96-107.7
	c56.2,3.4,99,51.5,96,107.7c0,11.8,9.6,21.3,21.3,21.3c11.8,0,21.3-9.6,21.3-21.3c-3-56.2,39.8-104.3,96-107.7
	c56.2,3.4,99,51.5,96,107.7C469.3,216.3,406.5,304.6,296.9,396.5L296.9,396.5z"/>
</svg>
