<?xml version="1.0" encoding="utf-8"?>
<!-- Generator: Adobe Illustrator 24.0.1, SVG Export Plug-In . SVG Version: 6.00 Build 0)  -->
<svg version="1.1" id="Outline" xmlns="http://www.w3.org/2000/svg" xmlns:xlink="http://www.w3.org/1999/xlink" x="0px" y="0px"
	 viewBox="0 0 512 512" style="enable-background:new 0 0 512 512;" xml:space="preserve">
<style type="text/css">
	.st0{fill:#4C4B4F;}
	.st1{fill:#FFFFFF;}
</style>
<rect class="st0" width="512" height="512"/>
<path class="st1" d="M362.7,234.7h-85.3v-85.3c0-11.8-9.6-21.3-21.3-21.3l0,0c-11.8,0-21.3,9.6-21.3,21.3v85.3h-85.3
	c-11.8,0-21.3,9.6-21.3,21.3l0,0c0,11.8,9.6,21.3,21.3,21.3h85.3v85.3c0,11.8,9.6,21.3,21.3,21.3l0,0c11.8,0,21.3-9.6,21.3-21.3
	v-85.3h85.3c11.8,0,21.3-9.6,21.3-21.3l0,0C384,244.2,374.4,234.7,362.7,234.7z"/>
</svg>
