<?xml version="1.0" encoding="utf-8"?>
<!-- Generator: Adobe Illustrator 24.0.1, SVG Export Plug-In . SVG Version: 6.00 Build 0)  -->
<svg version="1.1" id="Outline" xmlns="http://www.w3.org/2000/svg" xmlns:xlink="http://www.w3.org/1999/xlink" x="0px" y="0px"
	 viewBox="0 0 512 512" style="enable-background:new 0 0 512 512;" xml:space="preserve">
<style type="text/css">
	.st0{fill:#FFFFFF;}
</style>
<path class="st0" d="M508.5,191.6c-9-28.5-35.5-47.8-65.4-47.5h-93.2l-28.3-88.2C310,19.7,271.2-0.3,235,11.3
	c-21.2,6.8-37.8,23.4-44.5,44.5l-28.3,88.2H68.9c-38,0.1-68.8,30.9-68.7,68.9c0,21.9,10.5,42.5,28.2,55.5l75.9,55.5l-28.8,89.3
	c-9.6,28.5,0.7,59.8,25.3,77.1c24.1,17.8,57.1,17.7,81.1-0.4l74.3-54.7l74.3,54.6c30.6,22.5,73.7,16,96.2-14.7
	c13.1-17.8,16.9-40.9,10.1-61.9L407.7,324l75.9-55.5C508,251.2,518.1,219.9,508.5,191.6z M458.5,234.1l-88.4,64.6
	c-7.4,5.4-10.6,15-7.7,23.8L396,426.4c4.4,13.8-3.1,28.5-16.9,32.9c-8,2.6-16.8,1.2-23.6-3.8l-86.9-64c-7.5-5.5-17.7-5.5-25.3,0
	l-86.9,64c-11.6,8.6-28,6.3-36.6-5.3c-5.1-6.8-6.5-15.7-3.9-23.8l33.7-103.9c2.8-8.8-0.3-18.4-7.7-23.8l-88.4-64.6
	c-11.7-8.5-14.2-24.9-5.7-36.6c4.9-6.7,12.8-10.7,21.1-10.7h108.8c9.3,0,17.5-6,20.3-14.8l33.1-103.1c4.4-13.8,19.2-21.3,32.9-16.9
	c8,2.6,14.3,8.9,16.9,16.9L314,172c2.8,8.8,11,14.8,20.3,14.8h108.8c14.5,0,26.2,11.7,26.2,26.2
	C469.3,221.3,465.3,229.2,458.5,234.1L458.5,234.1z"/>
</svg>
